<?xml version="1.0" standalone="no"?>
<!DOCTYPE svg PUBLIC "-//W3C//DTD SVG 20010904//EN"
 "http://www.w3.org/TR/2001/REC-SVG-20010904/DTD/svg10.dtd">
<svg version="1.0" xmlns="http://www.w3.org/2000/svg"
 width="600.000000pt" height="600.000000pt" viewBox="0 0 600.000000 600.000000"
 preserveAspectRatio="xMidYMid meet">
<g transform="translate(0.000000,600.000000) scale(0.100000,-0.100000)"
fill="#000000" stroke="none">
<path d="M2990 5219 c-117 -12 -316 -55 -427 -90 -744 -238 -1294 -903 -1399
-1688 -31 -239 -11 -606 47 -830 158 -612 535 -1083 1087 -1360 284 -142 575
-211 893 -211 366 0 663 85 972 277 l78 49 162 -163 161 -163 466 0 465 0
-384 384 -385 385 41 53 c164 219 265 409 359 676 l42 122 -212 0 -213 0 -6
-38 c-21 -127 -172 -223 -302 -189 l-50 12 -54 -89 -54 -88 -197 201 -197 201
-469 0 -469 0 412 -412 412 -413 -52 -22 c-245 -106 -517 -134 -778 -82 -551
109 -967 530 -1090 1102 -26 122 -35 334 -20 464 48 412 273 783 611 1009 212
140 430 209 700 220 384 16 719 -117 995 -392 l92 -91 34 27 c19 15 136 105
260 201 l226 175 -62 75 c-352 424 -887 682 -1440 694 -93 2 -208 0 -255 -6z
m457 -30 c56 -7 101 -15 99 -18 -2 -3 8 -7 22 -7 51 -3 112 -17 107 -24 -3 -5
5 -6 17 -2 15 3 19 2 14 -7 -6 -8 -1 -10 17 -6 14 4 28 2 32 -4 3 -6 10 -9 15
-6 5 3 21 -1 34 -10 14 -9 29 -14 35 -11 5 4 16 0 24 -8 8 -8 17 -13 19 -11 3
3 32 -9 66 -25 34 -17 68 -30 76 -30 7 0 19 -6 25 -14 7 -8 23 -17 36 -20 14
-4 25 -10 25 -15 0 -5 14 -12 30 -16 27 -6 35 -15 31 -38 -1 -5 3 -5 9 -2 14
9 70 -14 70 -28 0 -6 3 -7 7 -4 9 10 44 -24 36 -36 -4 -6 -1 -7 7 -2 7 5 20
-2 34 -17 11 -14 26 -26 31 -27 6 0 19 -8 30 -18 105 -87 135 -117 131 -130
-3 -8 -2 -11 4 -8 5 3 18 0 29 -7 15 -9 17 -15 9 -25 -8 -10 -7 -12 5 -8 21 9
31 -13 15 -33 -12 -15 -11 -16 5 -3 17 13 21 11 45 -20 15 -18 36 -43 47 -54
28 -28 26 -37 -15 -62 -19 -13 -31 -23 -26 -23 5 0 3 -7 -4 -15 -7 -9 -19 -14
-27 -11 -7 3 -13 2 -13 -3 0 -4 -23 -28 -52 -52 -29 -24 -49 -39 -46 -33 4 5
-3 11 -15 11 -17 2 -18 0 -7 -7 12 -7 10 -14 -14 -39 -16 -17 -33 -28 -38 -25
-4 3 -20 -8 -34 -25 -17 -20 -31 -28 -42 -24 -9 3 -14 3 -10 -2 9 -9 -49 -58
-61 -51 -5 3 -8 -2 -7 -12 0 -11 -7 -18 -22 -20 -12 -2 -20 -8 -16 -13 3 -6
-3 -5 -14 2 -12 7 -18 17 -16 21 3 4 0 8 -5 8 -6 0 -11 5 -11 11 0 6 7 8 18 4
14 -5 15 -4 5 6 -10 10 -16 10 -24 2 -9 -9 -29 6 -80 58 -38 38 -69 66 -69 62
0 -3 -3 -3 -7 0 -3 4 2 17 13 28 l19 22 -27 -18 c-30 -18 -39 -10 -12 10 15
11 15 12 -4 10 -12 -1 -25 -5 -29 -10 -5 -4 -2 -5 6 0 10 6 12 4 7 -4 -8 -13
-32 0 -49 27 -5 7 -20 17 -34 23 -17 6 -23 14 -19 25 4 11 2 13 -11 5 -20 -11
-67 15 -56 32 4 6 -2 8 -15 5 -12 -4 -22 -2 -22 3 0 5 -7 9 -15 9 -8 0 -15 4
-15 8 0 5 -12 14 -26 20 -14 7 -23 8 -19 2 9 -15 -11 -12 -27 3 -7 7 -16 14
-21 15 -4 0 -32 10 -63 21 -30 12 -68 21 -84 21 -17 0 -30 4 -30 8 0 15 -205
35 -340 33 -197 -3 -220 -5 -207 -13 10 -7 -27 -12 -70 -11 -7 1 -10 -3 -7 -8
3 -5 -9 -6 -26 -3 -17 4 -30 2 -30 -4 0 -5 -10 -12 -22 -15 -13 -3 -48 -15
-78 -26 -31 -12 -66 -19 -80 -16 -17 4 -21 3 -12 -3 11 -7 7 -11 -12 -16 -16
-4 -24 -11 -20 -17 4 -7 -3 -6 -17 2 -23 12 -23 11 -9 -7 8 -10 10 -16 6 -12
-5 4 -24 -2 -43 -13 -19 -12 -37 -19 -40 -15 -4 3 0 6 7 6 7 0 11 2 8 5 -8 9
-38 -6 -32 -16 3 -5 0 -9 -6 -9 -6 0 -8 -4 -5 -10 4 -6 -1 -7 -11 -3 -13 5
-15 3 -9 -7 5 -8 3 -11 -5 -8 -7 2 -27 -10 -45 -27 -18 -16 -54 -46 -80 -65
-26 -19 -61 -50 -78 -68 -17 -18 -37 -30 -44 -27 -8 2 -11 0 -8 -5 7 -12 -75
-119 -91 -119 -7 -1 -14 -10 -17 -22 -4 -14 -10 -18 -19 -13 -10 6 -10 4 1 -9
12 -15 12 -17 -3 -11 -12 5 -15 2 -10 -10 3 -9 1 -16 -4 -16 -6 0 -14 -9 -17
-20 -4 -12 -11 -17 -18 -14 -7 4 -9 4 -5 -1 4 -4 0 -22 -9 -39 -10 -17 -17
-34 -18 -38 -1 -16 -16 -20 -31 -7 -16 13 -16 12 -5 -9 14 -27 7 -57 -10 -46
-8 4 -9 3 -5 -4 6 -11 -48 -167 -66 -186 -12 -14 -10 -28 3 -20 6 3 4 -7 -4
-22 -8 -16 -20 -56 -27 -89 -6 -33 -16 -76 -21 -95 -5 -19 -9 -44 -9 -55 0
-11 -1 -93 -3 -182 -1 -90 1 -163 5 -163 4 0 8 -15 8 -34 0 -19 4 -46 9 -59
12 -32 23 -85 25 -124 0 -17 4 -29 8 -27 3 2 11 -10 17 -28 13 -38 14 -48 1
-28 -7 12 -9 10 -7 -7 0 -12 5 -21 9 -20 4 1 23 -33 42 -75 31 -72 33 -82 14
-79 -4 0 -4 -7 -1 -16 4 -11 8 -13 11 -5 5 16 23 15 20 0 -2 -7 2 -12 8 -11 6
1 10 -9 8 -23 -1 -13 2 -22 7 -18 12 7 31 -44 23 -58 -4 -6 -2 -8 3 -5 12 8
47 -28 40 -40 -3 -5 -1 -15 5 -23 8 -12 9 -11 4 4 -5 16 -4 17 9 6 8 -7 13
-16 10 -20 -2 -4 7 -18 21 -31 13 -12 22 -29 19 -37 -2 -7 0 -10 5 -7 9 6 14
-8 11 -28 -1 -5 3 -6 9 -2 6 3 8 12 4 18 -3 7 2 3 10 -8 9 -11 14 -25 11 -33
-2 -7 -1 -11 4 -8 5 3 14 -1 21 -9 10 -12 10 -19 -1 -33 -12 -15 -12 -16 2 -5
13 11 22 7 55 -22 21 -19 32 -32 23 -29 -20 6 -34 -11 -18 -22 7 -4 9 -3 5 4
-10 17 37 10 52 -8 12 -13 13 -13 7 0 -6 13 -4 13 7 0 7 -9 29 -26 50 -38 20
-12 39 -29 42 -37 3 -8 12 -15 19 -15 8 0 22 -9 32 -20 10 -11 26 -20 35 -20
10 0 28 -9 42 -19 14 -11 43 -27 66 -36 23 -10 40 -21 37 -25 -3 -4 1 -8 8 -7
36 1 57 -4 52 -13 -3 -5 0 -11 7 -11 45 -4 66 -9 91 -22 25 -13 26 -16 10 -20
-15 -4 -14 -5 5 -6 12 0 22 4 22 10 0 5 5 7 11 3 6 -4 68 -15 137 -25 187 -27
401 -17 535 25 26 9 45 11 42 6 -4 -6 -2 -10 4 -10 5 0 14 6 18 13 4 8 29 19
56 27 26 7 50 17 53 21 3 5 13 9 22 9 9 0 30 10 46 23 l28 23 -24 29 c-14 17
-33 44 -42 60 -10 17 -15 21 -11 11 5 -16 3 -17 -10 -6 -8 7 -12 17 -9 22 3 5
-2 8 -11 6 -10 -2 -20 4 -22 12 -4 13 -3 13 6 0 8 -11 11 -11 11 -2 0 7 -10
17 -22 22 -13 5 -34 18 -48 30 -21 17 -22 19 -5 15 11 -4 6 2 -11 12 -17 10
-29 24 -27 31 3 6 -2 12 -11 12 -8 0 -18 5 -22 12 -4 7 -3 8 4 4 7 -4 12 -2
12 5 0 6 -8 9 -19 6 -15 -3 -18 -1 -14 11 4 9 2 13 -4 9 -6 -4 -16 0 -23 8 -7
8 -9 15 -6 15 4 0 2 9 -4 20 -6 11 -17 20 -25 20 -8 0 -15 5 -15 11 0 5 -4 8
-9 5 -4 -3 -13 6 -19 19 -7 14 -17 24 -24 23 -7 -2 -12 4 -10 12 2 8 0 12 -4
7 -9 -9 -55 33 -48 44 3 5 0 9 -7 9 -16 0 -80 66 -72 74 4 3 -1 6 -10 6 -9 0
-17 4 -17 10 0 15 -33 50 -48 50 -7 0 -10 5 -7 10 3 6 -1 10 -9 10 -9 0 -16 7
-16 15 0 8 -4 15 -10 15 -16 0 -47 35 -42 48 2 7 -2 10 -12 6 -10 -4 -16 -1
-16 9 0 9 -9 19 -21 22 -25 8 -15 21 24 30 17 5 27 3 27 -4 0 -6 -5 -11 -12
-11 -6 0 -8 -3 -5 -6 4 -4 13 -2 20 4 9 8 133 12 400 14 363 2 388 1 407 -17
11 -10 18 -20 15 -23 -3 -3 4 -11 15 -19 11 -8 20 -22 20 -31 0 -13 2 -14 9
-4 6 9 18 1 44 -31 20 -25 33 -48 29 -52 -4 -5 -1 -5 6 -1 15 9 45 -12 36 -25
-3 -5 0 -9 7 -9 6 0 40 -28 74 -62 89 -89 139 -135 131 -120 -4 6 -3 12 3 12
5 0 20 18 32 40 13 22 26 40 31 40 4 0 8 7 8 15 0 8 9 24 19 34 11 11 17 21
15 24 -3 3 17 0 43 -5 86 -17 176 5 225 54 11 11 27 21 37 23 9 1 15 8 13 14
-1 7 7 25 18 41 11 15 23 42 26 59 7 31 34 65 34 42 0 -7 4 -10 8 -7 13 8 322
10 329 2 7 -6 -14 -76 -34 -116 -7 -14 -13 -32 -13 -42 0 -14 -20 -61 -110
-253 -15 -33 -37 -66 -49 -73 -12 -7 -21 -17 -21 -24 0 -7 7 -3 15 8 8 10 14
15 14 9 0 -13 -25 -46 -31 -40 -2 2 -10 -11 -17 -30 -7 -21 -17 -33 -23 -29
-6 4 -8 2 -5 -4 4 -5 -1 -24 -10 -40 -16 -27 -19 -28 -30 -14 -11 15 -12 14
-5 -7 6 -18 3 -30 -17 -52 -23 -27 -50 -41 -37 -20 4 5 -1 8 -9 7 -8 -1 -16
-4 -17 -7 -2 -2 -1 -3 1 -2 2 2 10 -2 18 -8 11 -10 9 -18 -13 -46 -17 -23 -23
-40 -18 -51 4 -9 6 -21 5 -27 -2 -5 0 -7 4 -3 4 4 16 -2 28 -12 17 -17 18 -22
6 -37 -13 -17 -13 -17 4 -3 17 13 21 12 38 -10 10 -14 19 -29 19 -33 0 -5 4
-6 8 -3 5 3 22 -9 38 -26 16 -17 23 -28 17 -24 -27 15 -12 -3 20 -24 17 -12
23 -19 13 -16 -16 6 -17 4 -6 -9 7 -9 15 -13 17 -11 7 6 40 -28 36 -36 -2 -4
2 -5 9 -3 13 5 35 -15 67 -60 7 -11 0 -5 -18 13 -17 18 -31 29 -31 24 0 -13
55 -62 69 -62 8 0 11 -7 8 -19 -3 -14 -1 -18 9 -14 8 3 11 10 7 17 -3 6 3 3
15 -7 11 -10 19 -27 17 -37 -3 -13 1 -17 11 -13 8 3 14 0 14 -7 0 -6 4 -9 8
-6 14 8 125 -111 119 -127 -4 -11 0 -13 15 -9 15 3 19 1 14 -6 -4 -7 0 -15 8
-18 9 -3 14 -10 11 -14 -3 -4 2 -13 10 -20 13 -11 14 -10 8 6 -6 16 -5 17 9 4
9 -8 15 -17 13 -18 -7 -8 29 -41 38 -35 6 4 8 0 4 -10 -4 -11 -2 -14 9 -10 10
4 12 0 7 -13 -4 -12 -3 -15 5 -10 7 4 12 4 12 -1 0 -12 -800 -14 -823 -1 -14
7 -17 7 -13 -1 4 -6 2 -11 -5 -11 -7 0 -86 73 -176 163 -90 89 -167 163 -172
165 -5 2 -16 -4 -25 -14 -10 -9 -24 -13 -33 -9 -10 3 -14 3 -10 -1 7 -8 -79
-68 -113 -79 -11 -3 -20 -11 -20 -16 0 -6 -4 -8 -9 -5 -5 3 -25 -5 -45 -19
-20 -14 -39 -25 -42 -25 -7 0 -70 -27 -96 -41 -13 -6 -18 -5 -19 3 0 10 -2 10
-6 1 -2 -7 -11 -13 -19 -13 -9 0 -12 -5 -8 -12 4 -7 3 -8 -5 -4 -6 4 -25 0
-42 -8 -17 -9 -36 -13 -41 -10 -5 3 -15 1 -23 -6 -7 -6 -35 -15 -62 -20 -68
-12 -105 -20 -113 -25 -35 -22 -541 -28 -562 -7 -6 6 -17 12 -22 12 -6 0 -4
-5 4 -11 12 -8 10 -9 -10 -5 -31 8 -110 24 -195 40 -5 1 -14 4 -20 7 -5 4 -34
12 -62 19 -30 7 -50 16 -47 22 3 5 -2 9 -12 8 -35 -4 -55 0 -49 9 3 5 0 13 -6
17 -8 4 -9 3 -5 -4 10 -16 -17 -15 -32 0 -7 7 -12 9 -12 5 0 -4 -21 4 -46 18
-25 14 -43 21 -39 15 3 -6 0 -7 -9 -4 -9 3 -13 11 -9 17 4 7 0 8 -11 4 -14 -6
-17 -3 -12 9 5 14 4 15 -7 5 -11 -9 -17 -8 -27 4 -7 8 -17 15 -22 15 -16 0
-118 53 -118 61 0 4 -9 11 -20 14 -11 4 -18 11 -14 16 3 6 0 9 -7 8 -16 -3
-89 27 -89 36 0 3 5 3 12 -1 7 -4 8 -3 4 5 -4 7 -13 10 -19 8 -12 -4 -53 34
-50 45 2 5 -3 7 -10 5 -6 -1 -11 6 -11 16 2 14 -1 15 -13 6 -12 -10 -20 -6
-47 24 -18 20 -39 37 -46 37 -9 0 -7 7 6 22 l19 21 -30 -19 c-28 -17 -29 -17
-16 -1 8 10 10 17 5 16 -5 -1 -18 -1 -28 0 -19 1 -19 1 0 22 10 11 14 20 9 19
-21 -5 -27 1 -16 14 8 10 9 16 1 21 -6 4 -9 1 -8 -6 2 -7 -3 -14 -9 -15 -7 -1
-15 -2 -18 -3 -10 -2 -15 -1 -17 6 -5 13 -63 67 -70 65 -4 -1 -5 7 -3 18 2 12
0 18 -4 16 -4 -3 -21 11 -37 31 -16 20 -37 45 -48 54 -10 10 -15 22 -12 28 4
5 1 13 -5 17 -8 5 -10 2 -5 -7 4 -8 1 -5 -8 6 -8 11 -20 26 -26 32 -6 7 -20
30 -32 50 -12 21 -30 45 -40 54 -10 9 -15 19 -11 23 3 3 1 6 -7 6 -10 0 -10 4
1 17 8 9 9 14 4 11 -9 -6 -100 132 -100 151 0 3 -8 23 -19 45 -10 21 -19 44
-20 50 -1 6 -7 20 -13 31 -15 29 -38 98 -35 109 2 4 -2 13 -7 20 -10 12 -28
78 -37 135 -2 18 -8 41 -13 50 -12 22 -32 168 -35 253 0 25 -4 44 -8 42 -3 -2
-7 43 -7 101 -1 57 -4 111 -7 120 -4 8 -2 15 2 15 5 0 9 15 10 33 4 165 17
266 54 417 6 25 13 58 15 74 3 16 12 40 20 53 9 13 13 28 10 33 -3 6 -1 18 4
27 6 10 11 14 11 8 0 -13 20 16 20 30 0 6 -5 3 -10 -5 -9 -13 -10 -13 -10 0 0
9 6 24 14 35 7 11 17 35 20 52 4 18 12 35 17 38 5 4 6 -2 3 -12 -5 -15 -4 -15
4 -3 6 8 9 17 6 21 -2 4 3 23 11 43 14 32 24 41 47 37 4 0 5 6 1 15 -5 13 -7
13 -14 2 -5 -7 -9 -8 -9 -3 1 16 26 45 34 38 4 -4 4 1 0 11 -6 15 -4 17 6 11
9 -5 11 -4 6 4 -4 6 0 24 11 39 10 15 22 36 28 47 6 11 16 20 22 20 6 0 15 4
20 9 4 5 3 6 -4 2 -6 -3 -14 -2 -18 4 -3 5 1 10 10 10 9 0 15 6 13 12 -3 7 6
24 19 38 13 14 23 28 23 33 0 4 18 30 40 58 22 28 40 47 40 42 0 -5 -5 -14
-12 -21 -8 -8 -9 -12 -1 -12 6 0 17 16 23 35 6 19 16 35 22 35 6 0 9 2 6 5 -4
5 66 77 185 190 20 20 41 34 46 31 4 -3 13 6 19 19 7 14 18 25 25 25 8 0 22 9
32 20 10 11 23 17 29 13 6 -3 8 -3 4 1 -4 5 -1 14 5 21 9 10 17 10 32 2 18 -9
19 -9 6 6 -10 12 -10 17 -2 17 7 0 19 7 28 16 9 8 21 13 28 10 7 -2 12 1 11 7
0 7 4 14 9 16 6 2 22 12 37 22 31 22 51 26 22 4 -10 -8 -16 -15 -12 -15 4 0
19 11 34 25 14 13 30 22 35 19 5 -3 9 -1 9 5 0 6 13 9 30 7 16 -2 27 1 24 6
-3 5 -12 7 -20 4 -8 -3 -14 -1 -14 4 0 6 7 10 16 10 9 0 29 9 44 20 16 11 32
19 37 18 4 -1 18 3 31 10 12 7 28 10 34 6 7 -4 8 -3 4 4 -9 15 -1 15 27 0 20
-10 21 -10 9 5 -12 15 -10 16 22 14 21 -2 32 1 29 7 -4 5 1 7 11 3 14 -6 17
-3 12 10 -4 10 -4 14 -1 11 4 -4 25 0 48 8 23 8 53 16 67 18 14 1 39 8 55 16
17 7 49 12 73 12 28 -1 41 2 36 9 -4 6 1 10 12 8 11 -1 35 1 54 5 112 23 368
25 547 5z m-1631 -3566 c-7 -7 -26 7 -26 19 0 6 6 6 15 -2 9 -7 13 -15 11 -17z"/>
<path d="M4266 4867 c3 -10 9 -15 12 -12 3 3 0 11 -7 18 -10 9 -11 8 -5 -6z"/>
<path d="M2040 4821 c0 -5 7 -12 16 -15 14 -5 15 -4 4 9 -14 17 -20 19 -20 6z"/>
<path d="M4420 4730 c-9 -6 -10 -10 -3 -10 6 0 15 5 18 10 8 12 4 12 -15 0z"/>
<path d="M4480 4686 c0 -2 8 -10 18 -17 15 -13 16 -12 3 4 -13 16 -21 21 -21
13z"/>
<path d="M1641 4417 c-13 -21 -12 -21 5 -5 10 10 16 20 13 22 -3 3 -11 -5 -18
-17z"/>
<path d="M1570 4386 c0 -2 8 -10 18 -17 15 -13 16 -12 3 4 -13 16 -21 21 -21
13z"/>
<path d="M1571 4334 c6 -7 16 -11 21 -8 11 7 3 17 -18 20 -12 2 -13 -1 -3 -12z"/>
<path d="M2325 4311 c-3 -5 -2 -12 3 -15 5 -3 9 1 9 9 0 17 -3 19 -12 6z"/>
<path d="M4370 4210 c-9 -6 -10 -10 -3 -10 6 0 15 5 18 10 8 12 4 12 -15 0z"/>
<path d="M2101 4057 c-13 -21 -12 -21 5 -5 10 10 16 20 13 22 -3 3 -11 -5 -18
-17z"/>
<path d="M1840 3661 c0 -6 4 -13 10 -16 6 -3 7 1 4 9 -7 18 -14 21 -14 7z"/>
<path d="M1791 3383 c-1 -6 -4 -20 -7 -30 -5 -17 -5 -17 6 0 6 10 9 23 6 30
-3 9 -5 9 -5 0z"/>
<path d="M1181 3044 c0 -11 3 -14 6 -6 3 7 2 16 -1 19 -3 4 -6 -2 -5 -13z"/>
<path d="M3860 2631 c0 -5 5 -13 10 -16 6 -3 10 -2 10 4 0 5 -4 13 -10 16 -5
3 -10 2 -10 -4z"/>
<path d="M1265 2539 c-4 -6 -5 -12 -2 -15 2 -3 7 2 10 11 7 17 1 20 -8 4z"/>
<path d="M3930 2531 c0 -6 4 -13 10 -16 6 -3 7 1 4 9 -7 18 -14 21 -14 7z"/>
<path d="M5056 2467 c3 -10 9 -15 12 -12 3 3 0 11 -7 18 -10 9 -11 8 -5 -6z"/>
<path d="M4160 2261 c0 -6 4 -13 10 -16 6 -3 7 1 4 9 -7 18 -14 21 -14 7z"/>
<path d="M1379 2215 c17 -34 31 -51 31 -39 0 7 -9 22 -21 35 -16 19 -18 20
-10 4z"/>
<path d="M2084 2180 c0 -13 4 -16 10 -10 7 7 7 13 0 20 -6 6 -10 3 -10 -10z"/>
<path d="M2169 2103 c-13 -16 -12 -17 4 -4 9 7 17 15 17 17 0 8 -8 3 -21 -13z"/>
<path d="M3630 2031 c0 -6 4 -13 10 -16 6 -3 7 1 4 9 -7 18 -14 21 -14 7z"/>
<path d="M4726 1875 c-9 -26 -7 -32 5 -12 6 10 9 21 6 23 -2 3 -7 -2 -11 -11z"/>
<path d="M2508 1863 c6 -2 10 -9 7 -14 -4 -5 1 -6 10 -2 13 5 14 7 3 14 -7 5
-17 8 -23 8 -5 0 -4 -3 3 -6z"/>
<path d="M1660 1816 c0 -8 4 -17 9 -20 5 -4 7 3 4 14 -6 23 -13 26 -13 6z"/>
<path d="M3480 1710 c-9 -6 -10 -10 -3 -10 6 0 15 5 18 10 8 12 4 12 -15 0z"/>
<path d="M4845 1650 c10 -11 20 -20 23 -20 3 0 -3 9 -13 20 -10 11 -20 20 -23
20 -3 0 3 -9 13 -20z"/>
<path d="M4804 1648 c-4 -7 -3 -10 1 -5 5 4 20 -3 34 -15 l26 -23 -24 28 c-28
31 -28 31 -37 15z"/>
<path d="M4880 1546 c0 -2 8 -10 18 -17 15 -13 16 -12 3 4 -13 16 -21 21 -21
13z"/>
<path d="M4960 1460 c0 -5 5 -10 11 -10 5 0 7 5 4 10 -3 6 -8 10 -11 10 -2 0
-4 -4 -4 -10z"/>
<path d="M5086 1393 c-6 -14 -5 -15 5 -6 7 7 10 15 7 18 -3 3 -9 -2 -12 -12z"/>
<path d="M5053 1377 c0 -7 9 -14 20 -14 11 -1 18 -1 16 0 -2 2 -11 8 -20 15
-12 9 -16 9 -16 -1z"/>
<path d="M2207 1339 c7 -7 15 -10 18 -7 3 3 -2 9 -12 12 -14 6 -15 5 -6 -5z"/>
<path d="M5150 1340 c0 -5 5 -10 11 -10 6 0 9 -6 6 -14 -3 -8 1 -20 9 -26 11
-10 14 -10 14 0 0 9 7 7 23 -6 12 -10 4 1 -18 24 -42 45 -45 47 -45 32z"/>
<path d="M4360 1301 c0 -5 5 -13 10 -16 6 -3 10 -2 10 4 0 5 -4 13 -10 16 -5
3 -10 2 -10 -4z"/>
<path d="M5230 1256 c0 -2 8 -10 18 -17 15 -13 16 -12 3 4 -13 16 -21 21 -21
13z"/>
<path d="M5200 1231 c0 -6 4 -13 10 -16 6 -3 7 1 4 9 -7 18 -14 21 -14 7z"/>
<path d="M4440 1220 c0 -5 5 -10 11 -10 5 0 7 5 4 10 -3 6 -8 10 -11 10 -2 0
-4 -4 -4 -10z"/>
<path d="M5290 1166 c0 -2 8 -10 18 -17 15 -13 16 -12 3 4 -13 16 -21 21 -21
13z"/>
<path d="M4793 4240 c-53 -27 -86 -89 -81 -151 l3 -42 -113 -82 -112 -83 -43
15 c-96 33 -187 -34 -187 -139 0 -76 52 -135 129 -145 l39 -5 22 -87 c53 -210
69 -378 51 -546 -15 -140 -16 -142 -55 -155 -134 -44 -130 -239 5 -279 98 -30
194 53 186 161 l-2 36 205 144 205 144 34 -23 c67 -46 171 -21 207 50 20 38
20 107 0 146 -18 33 -73 71 -104 71 -22 0 -28 16 -96 253 -14 48 -53 171 -87
273 -61 186 -61 186 -41 207 48 53 58 123 26 178 -43 72 -118 96 -191 59z m98
-9 c0 10 2 11 6 1 2 -6 9 -10 14 -6 5 3 9 0 9 -5 0 -6 6 -11 14 -11 8 0 18 -5
22 -12 5 -7 2 -9 -7 -4 -8 4 -6 1 3 -6 22 -18 34 -84 19 -102 -9 -10 -9 -16
-1 -21 7 -4 -2 -19 -23 -39 -22 -20 -33 -40 -32 -55 2 -21 0 -22 -10 -7 -7 9
-17 16 -24 16 -6 0 -11 5 -11 12 0 9 -3 9 -11 1 -8 -8 -20 -8 -34 -3 -13 5
-25 7 -27 4 -3 -2 -13 7 -23 20 l-19 24 -35 -25 -36 -25 29 27 c25 23 29 33
27 77 -2 59 6 91 20 82 6 -3 9 0 7 8 -2 7 2 15 7 17 6 1 17 8 25 16 19 17 61
24 78 12 8 -6 12 -5 13 4z m-42 -266 c38 0 39 -1 59 -60 46 -137 124 -383 156
-492 19 -65 37 -125 40 -133 4 -10 -4 -22 -24 -33 l-30 -18 -208 168 c-114 92
-235 190 -268 217 l-61 48 19 37 c18 34 19 69 4 126 -5 16 15 35 105 102 l111
82 29 -22 c18 -12 45 -21 68 -22z m-183 3 c4 -7 3 -10 -1 -5 -5 4 -21 -4 -35
-18 -19 -18 -27 -21 -27 -11 0 8 3 13 7 11 4 -3 15 4 25 15 21 24 22 24 31 8z
m-81 -66 c-3 -3 -15 -7 -28 -9 -21 -4 -21 -3 -2 11 18 13 44 12 30 -2z m364
-22 c0 -10 -3 -8 -9 5 -12 27 -12 43 0 25 5 -8 9 -22 9 -30z m-464 -20 c-6 10
-3 12 13 8 12 -4 22 -2 22 3 0 5 5 9 12 9 6 0 1 -11 -12 -25 -16 -17 -20 -28
-13 -37 6 -7 10 -20 10 -28 0 -9 3 -29 7 -45 5 -22 4 -26 -4 -15 -8 13 -10 12
-10 -5 0 -11 -7 -33 -15 -48 -8 -15 -10 -25 -6 -22 5 3 12 -2 15 -11 3 -8 2
-12 -3 -9 -5 3 -12 1 -16 -4 -3 -6 -13 -8 -23 -5 -13 5 -14 4 -3 -4 9 -7 11
-15 4 -27 -9 -16 -11 -15 -16 7 -6 23 -36 38 -82 42 -5 1 -14 7 -18 14 -4 6
-13 12 -20 12 -7 0 -6 -4 3 -10 8 -5 10 -10 4 -10 -6 0 -17 7 -24 15 -7 8 -9
15 -5 15 5 0 1 8 -8 18 -15 17 -20 44 -18 91 1 16 5 21 16 17 8 -3 14 -2 14 2
-4 25 4 41 21 47 11 4 18 9 16 13 -6 10 57 8 73 -2 11 -7 13 -5 8 8 -6 15 -2
14 30 -5 20 -13 33 -17 28 -9z m499 -85 c3 -8 1 -15 -4 -15 -6 0 -10 7 -10 15
0 8 2 15 4 15 2 0 6 -7 10 -15z m-429 -177 c3 1 5 0 5 -4 -1 -3 9 -14 22 -25
21 -19 20 -19 -10 1 -17 12 -37 31 -43 43 -10 22 -10 22 6 2 9 -11 18 -19 20
-17z m278 -261 l184 -149 -2 -59 -2 -59 -208 -145 c-182 -128 -210 -144 -224
-132 -9 8 -24 17 -35 21 -12 4 -16 12 -12 22 16 40 28 230 23 339 -7 137 -44
353 -74 431 -3 9 32 -14 79 -52 48 -38 169 -136 271 -217z m-164 177 c14 -12
-19 -1 -35 12 -18 14 -18 14 6 3 14 -6 27 -13 29 -15z m32 -31 c13 -17 13 -17
-6 -3 -11 8 -22 16 -24 17 -2 2 0 3 6 3 6 0 17 -8 24 -17z m-208 -8 c-3 -9 -8
-14 -10 -11 -3 3 -2 9 2 15 9 16 15 13 8 -4z m584 -7 c-3 -8 -6 -5 -6 6 -1 11
2 17 5 13 3 -3 4 -12 1 -19z m-329 -22 c37 -19 67 -53 48 -53 -8 0 -14 5 -13
10 1 6 -16 21 -38 33 -43 26 -41 33 3 10z m132 -104 c0 -5 18 -18 40 -31 47
-26 55 -37 35 -45 -8 -3 -17 0 -21 6 -4 7 -3 8 4 4 7 -4 12 -3 12 1 0 5 -20
19 -44 33 -25 13 -42 28 -39 34 4 6 -1 7 -13 2 -10 -4 -15 -4 -11 0 4 4 -1 13
-11 21 -12 10 -8 9 16 -2 17 -8 32 -19 32 -23z m-363 -19 c-3 -10 -5 -4 -5 12
0 17 2 24 5 18 2 -7 2 -21 0 -30z m612 -8 c0 -5 -4 -3 -9 5 -5 8 -9 22 -9 30
0 16 17 -16 18 -35z m-589 -70 c0 -5 -5 -3 -10 5 -5 8 -10 20 -10 25 0 6 5 3
10 -5 5 -8 10 -19 10 -25z m600 25 c0 -5 11 -12 25 -16 14 -3 25 -10 25 -14 0
-5 8 -6 18 -3 28 7 72 -56 72 -103 0 -48 -30 -113 -52 -114 -9 0 -18 3 -21 8
-2 4 -2 2 -1 -5 4 -16 -13 -26 -21 -13 -3 5 -14 10 -23 9 -14 0 -13 -2 3 -9
17 -7 16 -9 -11 -9 -16 -1 -39 6 -50 15 -10 8 -12 12 -4 8 8 -4 12 -3 7 1 -12
14 -76 16 -100 4 -12 -6 -31 -19 -43 -28 -11 -9 -2 1 20 21 22 20 42 35 45 33
3 -2 7 28 8 65 3 64 1 70 -24 89 -14 12 -23 24 -19 28 4 4 11 1 15 -6 5 -8 14
-10 21 -6 8 5 11 4 7 -2 -4 -6 0 -13 8 -17 8 -3 18 1 22 8 5 7 20 21 35 31 15
9 25 21 22 26 -3 5 0 9 5 9 6 0 11 -4 11 -10z m-603 -302 c-3 -7 -5 -2 -5 12
0 14 2 19 5 13 2 -7 2 -19 0 -25z m352 -29 c-15 -9 -32 -2 -24 11 3 5 13 6 21
3 12 -4 13 -8 3 -14z m-34 -19 c-3 -5 -12 -10 -18 -10 -7 0 -6 4 3 10 19 12
23 12 15 0z m-45 -34 c0 -11 -19 -15 -25 -6 -3 5 1 10 9 10 9 0 16 -2 16 -4z
m-66 -44 c3 -5 -1 -9 -9 -9 -8 0 -12 4 -9 9 3 4 7 8 9 8 2 0 6 -4 9 -8z m-214
-34 c15 -13 36 -29 46 -35 12 -8 14 -12 4 -10 -8 1 -15 -7 -16 -20 -1 -12 2
-20 7 -17 4 2 5 12 2 21 -4 11 -3 14 5 9 7 -4 12 -14 12 -22 0 -8 5 -12 10 -9
6 3 11 -4 12 -17 1 -22 1 -30 -4 -70 -1 -9 -6 -16 -11 -15 -5 1 -12 -4 -15
-12 -3 -9 0 -11 9 -6 8 5 11 4 6 -1 -5 -5 -9 -7 -10 -5 -1 3 -15 -7 -31 -22
-28 -26 -53 -37 -41 -17 4 6 -2 7 -17 1 -36 -13 -90 16 -102 57 -4 12 -12 19
-18 16 -6 -4 -8 -3 -5 3 4 6 2 24 -3 42 -6 22 -6 29 2 25 7 -5 9 -1 5 9 -6 15
3 22 25 18 4 0 5 6 2 14 -4 8 -10 12 -15 9 -5 -3 -9 -3 -9 0 0 9 101 56 119
56 14 0 14 1 1 10 -8 5 -11 10 -6 10 4 0 21 -10 36 -22z m155 -10 c-9 -6 -19
-7 -22 -4 -4 3 -1 6 6 6 7 0 9 4 6 10 -4 6 1 7 11 3 15 -6 15 -7 -1 -15z m-30
-18 c4 -6 -1 -7 -11 -3 -12 4 -15 3 -10 -5 4 -7 1 -12 -9 -12 -9 0 -13 -4 -10
-10 7 -11 -8 -14 -19 -3 -4 4 3 15 16 25 27 20 34 22 43 8z"/>
<path d="M4913 4175 c0 -7 6 -11 14 -8 7 3 13 6 13 8 0 2 -6 5 -13 8 -8 3 -14
-1 -14 -8z"/>
<path d="M4703 3585 c0 -8 4 -12 9 -9 5 3 6 10 3 15 -9 13 -12 11 -12 -6z"/>
<path d="M4385 3860 c3 -5 8 -10 11 -10 2 0 4 5 4 10 0 6 -5 10 -11 10 -5 0
-7 -4 -4 -10z"/>
<path d="M4295 3759 c-4 -6 -5 -12 -2 -15 2 -3 7 2 10 11 7 17 1 20 -8 4z"/>
<path d="M5105 3231 c-3 -5 -2 -12 3 -15 5 -3 9 1 9 9 0 17 -3 19 -12 6z"/>
<path d="M4565 2629 c-4 -6 -5 -12 -2 -15 2 -3 7 2 10 11 7 17 1 20 -8 4z"/>
<path d="M4454 4174 c-18 -14 -18 -15 4 -4 12 6 22 13 22 15 0 8 -5 6 -26 -11z"/>
<path d="M4110 4100 c-9 -6 -10 -10 -3 -10 6 0 15 5 18 10 8 12 4 12 -15 0z"/>
<path d="M4383 4095 c0 -8 4 -12 9 -9 5 3 6 10 3 15 -9 13 -12 11 -12 -6z"/>
<path d="M4165 4049 c-4 -6 -5 -12 -2 -15 2 -3 7 2 10 11 7 17 1 20 -8 4z"/>
<path d="M4190 4026 c0 -2 7 -9 15 -16 13 -11 14 -10 9 4 -5 14 -24 23 -24 12z"/>
<path d="M2096 3932 c-3 -5 1 -9 9 -9 8 0 12 4 9 9 -3 4 -7 8 -9 8 -2 0 -6 -4
-9 -8z"/>
<path d="M4325 2779 c-4 -6 -5 -12 -2 -15 2 -3 7 2 10 11 7 17 1 20 -8 4z"/>
<path d="M3209 2333 c-13 -16 -12 -17 4 -4 9 7 17 15 17 17 0 8 -8 3 -21 -13z"/>
<path d="M3289 2253 c-13 -16 -12 -17 4 -4 9 7 17 15 17 17 0 8 -8 3 -21 -13z"/>
<path d="M3443 2094 c0 -9 4 -11 12 -4 7 5 14 9 16 7 2 -1 3 0 1 2 -7 11 -29
7 -29 -5z"/>
<path d="M2353 2067 c0 -8 6 -14 14 -14 9 0 10 4 2 14 -6 7 -12 13 -14 13 -1
0 -2 -6 -2 -13z"/>
<path d="M3520 2025 c0 -2 6 -8 13 -14 10 -8 14 -7 14 2 0 8 -6 14 -14 14 -7
0 -13 -1 -13 -2z"/>
<path d="M1400 2010 c-12 -7 -10 -9 7 -7 12 0 19 5 17 9 -6 10 -6 10 -24 -2z"/>
<path d="M3611 1937 c-8 -10 -7 -14 2 -14 8 0 14 6 14 14 0 7 -1 13 -2 13 -2
0 -8 -6 -14 -13z"/>
<path d="M5235 1350 c-3 -6 1 -7 9 -4 18 7 21 14 7 14 -6 0 -13 -4 -16 -10z"/>
</g>
</svg>
